<svg width="336" height="156" viewBox="0 0 336 156" fill="none" xmlns="http://www.w3.org/2000/svg">
<path d="M305.593 63.3206C304.802 64.5084 303.34 64.9356 302.039 64.7124C300.738 64.4787 299.563 63.7073 298.476 62.8637C297.623 62.2028 296.655 60.7302 296.655 60.7302C298.836 57.3366 301.025 53.9344 303.205 50.5429C303.304 50.3793 303.421 50.2178 303.582 50.1753C303.959 50.0946 304.157 50.6534 304.202 51.0806C304.427 53.0101 304.812 54.9098 305.351 56.7479C305.673 57.8359 306.051 58.9112 306.184 60.0502C306.319 61.1764 306.193 62.4068 305.593 63.3206ZM255.806 55.3263C255.429 55.9149 254.971 56.4738 254.774 57.1644C252.234 61.7353 249.283 66.0129 245.971 69.8932C245.414 70.5328 244.794 71.2022 244.015 71.3148C242.956 71.4678 242.021 70.5519 241.313 69.6488C241.043 69.3131 240.775 68.9369 240.668 68.5013C240.559 68.0444 240.639 67.5472 240.739 67.0882C241.646 62.7511 244.257 59.1449 246.94 55.8852C248.671 53.7814 250.52 51.7011 252.835 50.5217C253.276 50.2879 253.786 50.1052 254.226 50.3283C254.487 50.4601 254.674 50.7044 254.855 50.9488C255.159 51.3653 255.474 51.7924 255.778 52.2089C255.994 52.4916 256.21 52.7869 256.308 53.1418C256.533 53.8834 256.201 54.6867 255.806 55.3263ZM170.33 126.146C168.284 128.492 166.067 130.757 163.375 131.988C162.755 132.262 162.055 132.485 161.445 132.2C160.754 131.875 160.386 130.961 160.422 130.109C160.45 129.255 160.809 128.473 161.212 127.753C163.204 124.187 166.435 121.747 169.711 119.716C172.987 117.684 176.422 115.919 179.294 113.216C176.674 117.523 173.561 122.419 170.33 126.146ZM147.339 88.8376C146.639 94.7493 144.395 99.6049 140.815 103.982C140.412 104.48 139.908 104.998 139.315 104.958C138.482 104.917 138.007 103.851 137.836 102.926C137.44 100.814 137.656 98.6083 138.05 96.4854C138.724 92.9622 140.015 89.3858 142.555 87.2013C143.391 86.4916 144.414 85.9221 145.445 86.0942C146.487 86.2578 147.572 87.6794 147.339 88.8376ZM334.256 54.5039C333.546 53.1822 332.147 52.0559 330.873 52.6233C330.217 52.9187 329.759 53.5987 329.329 54.2404C326.896 57.8147 324.062 61.0447 320.912 63.8178C321.512 61.1254 321.315 58.2206 320.615 55.5494C319.905 52.8783 318.695 50.4006 317.358 48.0631C316.218 46.0719 314.908 43.9299 315.105 41.5733C315.85 40.2006 318.013 39.5206 318.766 37.5804C319.305 36.1694 318.91 34.5119 318.265 33.1519C317.617 31.8004 316.729 30.5828 316.226 29.1591C315.689 27.6354 315.544 25.8186 314.45 24.7518C313.417 23.7361 311.812 23.7658 310.583 24.4458C309.353 25.1173 308.42 26.3264 307.558 27.5249C301.635 35.8231 297.723 45.7681 291.719 53.9854C288.534 58.0484 284.98 62.0923 280.386 63.6351C278.708 64.1939 276.671 64.2959 275.449 62.8743C273.941 61.1063 274.606 58.1908 275.413 55.9043C280.915 40.2516 288.372 25.5338 296.996 11.8106C298.521 9.3817 300.145 6.74244 300.047 3.77594C300.011 2.68794 299.66 1.50006 298.817 0.970937C298.314 0.656437 297.714 0.616073 297.13 0.626698C294.824 0.645823 292.562 1.26631 290.264 1.50006C288.363 1.69344 286.407 1.62118 284.593 2.30331C282.423 3.11506 280.671 4.93407 279.076 6.79132C269.554 17.9157 263.415 32.1256 257.654 46.1739C254.99 44.5483 254.603 40.0284 251.92 38.6769C249.964 37.6824 247.711 38.8512 245.872 40.0794C240.639 43.5942 235.849 47.8909 231.414 52.5936C227.143 57.1347 223.006 62.4876 222.172 69.0496C217.928 72.5027 213.916 75.9069 209.904 79.3197C212.131 75.0527 214.526 70.5944 215.701 65.6368C216.024 64.2449 216.221 62.6406 215.485 61.4718C214.714 60.2521 213.161 59.9886 211.888 60.3753C210.604 60.7599 209.51 61.6652 208.38 62.4472C207.257 63.2186 205.982 63.8986 204.665 63.7583C201.595 64.0006 199.19 66.7631 197.396 69.6382C195.601 72.5027 194.075 75.7136 191.589 77.8258C190.692 78.5887 189.623 79.1964 188.503 79.0966C187.389 78.9946 186.295 77.9469 186.338 76.6783C186.366 76.0684 186.644 75.5096 186.931 74.9911C188.923 71.4678 192.038 68.8456 193.814 65.1799C193.994 64.7932 194.165 64.3576 194.039 63.9496C193.968 63.7158 193.806 63.5331 193.652 63.3609C192.451 62.0413 191.095 60.6282 189.417 60.5368C188.009 60.4667 186.725 61.3401 185.514 62.1518C178.146 67.1307 169.692 71.0513 161.195 69.7614C159.149 69.4448 157.148 68.8371 155.092 68.6437C153.036 68.4503 150.866 68.7032 149.143 69.9846C147.42 71.2638 146.289 73.7416 146.871 75.9877C143.659 72.9404 138.876 72.5346 135.189 74.3833C131.5 76.2406 128.763 79.9189 126.671 83.8183C124.015 88.7866 122.194 94.3009 121.314 100.021C118.424 104.369 114.809 107.833 110.654 109.935C109.918 110.3 109.128 110.636 108.33 110.544C106.84 110.372 105.754 108.696 105.548 107.019C105.341 105.334 105.807 103.647 106.301 102.042C112.744 80.9751 124.212 62.2942 137.226 45.5641C139.738 42.3341 142.349 39.1041 143.992 35.2238C144.269 34.5842 144.512 33.9042 144.495 33.1923C144.421 31.2734 142.439 30.1748 140.744 30.1748C138.947 30.1748 137.216 30.9079 135.538 31.6283C130.98 33.5684 126.349 35.5702 122.491 38.9319C119.528 41.5223 117.133 44.8331 114.844 48.1863C110.251 54.9204 105.978 61.9393 101.885 69.0708C94.3028 82.3053 87.2141 96.2921 84.4056 111.743C80.1328 116.701 74.0222 118.031 68.3508 118.071C62.6794 118.101 56.9536 117.106 51.3724 118.203C53.5087 108.341 57.2409 99.2904 61.1438 90.3909C69.6612 70.9791 79.3969 51.6394 94.0156 37.6527C94.8059 36.9004 96.152 36.2502 96.6908 37.2362C96.8973 37.6102 96.8691 38.0883 96.8165 38.5261C96.3941 42.2639 94.8679 45.7277 93.1989 48.9874C89.0257 57.1241 83.7767 64.5403 77.6754 70.9196C76.5265 72.1266 75.2424 73.9562 76.0778 75.4586C76.5434 76.2916 77.4952 76.5869 78.3663 76.6677C81.4883 76.9524 84.5839 75.4288 87.0245 73.1933C89.4668 70.9684 91.3592 68.0636 93.1896 65.1799C98.906 56.1699 104.373 46.8348 108.007 36.5243C108.734 34.4631 109.396 32.3189 109.477 30.0941C109.558 27.8692 108.985 25.5232 107.566 23.9783C105.807 22.0892 103.134 21.7641 100.719 22.0998C97.2014 22.5779 93.8898 24.1823 90.7397 26.0119C71.0786 37.4274 46.4632 66.2552 31.118 119.361C21.5156 119.605 12.067 124.461 5.57904 132.474C2.14168 136.741 -0.569171 142.836 1.41515 148.159C3.29059 153.187 8.61089 155.361 13.4224 155.707C25.6719 156.589 40.1367 143.973 45.4682 133.735C52.4762 137.067 59.2777 139.281 66.5824 136.903C73.887 134.527 80.4295 129.255 84.8186 122.064C84.5577 123.617 84.4225 125.273 84.9425 126.737C85.8042 129.204 88.2466 130.475 90.5613 130.881C94.1695 131.52 97.8828 130.617 101.204 128.941C104.534 127.253 107.513 124.805 110.367 122.247C114.728 118.316 118.847 114.07 122.669 109.701C122.579 113.804 125.631 117.451 129.157 118.386C132.685 119.331 136.462 117.95 139.405 115.562C142.349 113.165 144.592 109.843 146.657 106.471C148.371 103.679 149.995 100.814 151.529 97.8879C153.575 93.9779 155.505 89.2838 154.015 85.0678C153.953 84.9063 153.889 84.7427 153.889 84.5599C153.881 84.0924 154.337 83.7673 154.75 83.7588C155.163 83.7588 155.541 83.9926 155.918 84.1753C157.964 85.1804 160.334 85.0784 162.468 84.3474C164.595 83.6271 166.534 82.3053 168.391 80.9028C169.692 79.9296 171.425 78.8819 172.716 79.8871C171.703 81.0154 170.698 82.1438 169.692 83.2701C168.175 84.9679 166.632 86.6934 165.654 88.8376C164.666 90.9796 164.308 93.6316 165.241 95.8054C166.211 98.0601 168.419 99.3903 170.625 99.6453C172.833 99.8982 175.04 99.2288 177.113 98.3448C182.041 96.2411 186.545 92.9006 190.502 88.9587C189.229 93.1938 186.07 96.3239 182.903 99.0142C172.878 107.516 161.312 113.866 152.616 124.074C149.233 128.046 146.226 132.882 145.921 138.397C145.805 140.501 146.109 142.683 147.087 144.472C148.253 146.614 150.292 148.038 152.455 148.656C154.608 149.285 156.887 149.185 159.085 148.809C164.137 147.966 168.992 145.7 173.112 142.288C175.534 140.267 177.697 137.87 179.788 135.411C186.079 128.035 201.809 101.575 203.193 96.2836C208.828 90.2188 215.369 85.2314 222.45 81.5956C224.603 85.3929 228.345 87.9026 232.276 88.2383C236.063 88.5528 239.813 86.9484 242.973 84.5599C246.123 82.1842 248.77 79.0456 251.391 75.9367C252.108 77.6834 252.799 79.7468 254.154 81.2194C255.151 82.2947 256.426 82.9768 257.734 83.4337C260.158 84.2667 262.769 84.3772 265.245 83.7588C267.776 83.1192 270.119 81.7358 272.389 80.3142C278.169 76.6889 283.769 72.7258 289.17 68.4291C291.226 74.4428 296.583 78.7608 302.281 79.5024C307.981 80.2334 313.821 77.6133 317.932 73.0934C320.812 72.1584 323.81 71.5379 326.636 70.2884C329.453 69.0496 332.147 67.1201 333.797 64.2343C335.44 61.3592 335.844 57.4194 334.256 54.5039Z" fill="#231F20"/>
<path d="M298.042 21.5565C299.579 19.5122 299.466 16.5393 299.938 13.9086C300.251 12.1703 300.852 10.5001 301.702 9.01045C302.324 7.9182 303.103 6.90245 304.111 6.27983C305.119 5.65933 306.388 5.48083 307.421 6.04608C308.247 6.4987 308.844 7.36995 309.245 8.30283C310.066 10.2047 310.18 12.4317 309.818 14.5078C309.456 16.5861 308.643 18.5305 307.687 20.3495C305.964 23.6305 303.61 26.6862 300.46 28.0441C299.397 28.5031 298.057 28.6986 297.236 27.8061C296.701 27.2238 296.538 26.3186 296.573 25.4792C296.635 24.0023 298.042 21.5565 298.042 21.5565Z" fill="#231F20"/>
</svg>
